# xmcd
#
# Track frame offsets:
#	150
#	29476
#	45903
#	57833
#	75988
#	95414
#	108464
#	124891
#	140647
#	163527
#	181752
#	197427
#	210628
#
# Disc length: 3076 seconds
#
# Revision: 0
# Processed by: cddbd v1.5.2PL0 Copyright (c) Steve Scherf et al.
# Submitted via: audiograbber 1.83.01
#
DISCID=a50c020d
DTITLE=Kenny Chesney - Hemingway's Whiskey
DYEAR=2010
DGENRE=Country
TTITLE0=The Boys Of Fall
TTITLE1=Live A Little
TTITLE2=Coastal
TTITLE3=You And Tequila (featuring Grace Potter)
TTITLE4=Seven Days
TTITLE5=Small Y'all (Duet with George Jones)
TTITLE6=Where I Grew Up
TTITLE7=Reality
TTITLE8=Round And Round
TTITLE9=Somewhere With You
TTITLE10=Hemingway's Whiskey
TTITLE11=Ain't Ever Going Back Again
TTITLE12=I Didn't Get Here Alone
EXTD=
EXTT0=
EXTT1=
EXTT2=
EXTT3=
EXTT4=
EXTT5=
EXTT6=
EXTT7=
EXTT8=
EXTT9=
EXTT10=
EXTT11=
EXTT12=
PLAYORDER=
